<svg xmlns="http://www.w3.org/2000/svg" viewBox="-0.5 -0.5 16 16" fill="none" stroke="#ffffff" stroke-linecap="round" stroke-linejoin="round" id="Dice-2--Streamline-Tabler.svg" height="16" width="16"><desc>Dice 2 Streamline Icon: https://streamlinehq.com</desc><path d="M1.875 3.125a1.25 1.25 0 0 1 1.25 -1.25h8.75a1.25 1.25 0 0 1 1.25 1.25v8.75a1.25 1.25 0 0 1 -1.25 1.25H3.125a1.25 1.25 0 0 1 -1.25 -1.25z" stroke-width="1"></path><path fill="#ffffff" d="M5.625 5.9375a0.3125 0.3125 0 1 0 0.625 0 0.3125 0.3125 0 1 0 -0.625 0" stroke-width="1"></path><path fill="#ffffff" d="M8.75 9.0625a0.3125 0.3125 0 1 0 0.625 0 0.3125 0.3125 0 1 0 -0.625 0" stroke-width="1"></path></svg>